<?xml version="1.0" encoding="utf-8"?>
<!-- Generator: Adobe Illustrator 21.1.0, SVG Export Plug-In . SVG Version: 6.00 Build 0)  -->
<svg version="1.1" id="Layer_1" xmlns="http://www.w3.org/2000/svg" xmlns:xlink="http://www.w3.org/1999/xlink" x="0px" y="0px"
	 viewBox="0 0 512 512" style="enable-background:new 0 0 512 512;" xml:space="preserve">
<style type="text/css">
	.st0{fill:#739126;}
</style>
<path class="st0" d="M0,225.7l0,35.5c0,11.5,9.4,20.9,20.9,20.9h5.2v156.6c0,31.8,25.9,57.7,57.7,57.7h344.4
	c31.8,0,57.7-25.9,57.7-57.7V282.1h5.2c11.5,0,20.9-9.4,20.9-20.9v-35.5c0-11.5-9.4-20.9-20.9-20.9h-24.5l-21,0c0,0,0,0,0,0H328.3
	c0,0,0,0,0,0l-68.7,0l-48-98.8c0,0,0,0,0,0l-26.9-55.4c-1.7-3.6-5.4-5.9-9.4-5.9h-29.3c-3.6,0-6.9,1.9-8.9,4.9
	c-1.7,2.6-2,5.9-1.1,8.8l0.5,1.3l70.5,145.1h-36.1h-23.5H49.2H26.1h-5.2C9.4,204.8,0,214.2,0,225.7z M238.5,209
	c-1.6,0.8-3.2,1.8-4.7,2.8l-71-146.3h6L238.5,209z M220.5,364.8L178.3,407l-42.2-42.2l42.2-42.2L220.5,364.8z M178.3,293.1l-11-11
	h21.9L178.3,293.1z M193,307.9l25.8-25.8h146.8l25.8,25.8l-42.2,42.2L314,314.9c-4.1-4.1-10.7-4.1-14.8,0c-4.1,4.1-4.1,10.7,0,14.8
	l35.2,35.2l-42.2,42.2L250,364.8l11.2-11.2c4.1-4.1,4.1-10.7,0-14.8c-4.1-4.1-10.7-4.1-14.8,0L235.2,350L193,307.9z M446.8,282.1
	L446.8,282.1l18.2,0v66.1l-1.8,1.8L421,307.9L446.8,282.1z M448.4,364.9l-42.2,42.2L364,364.9l42.2-42.2L448.4,364.9z M406.2,293.1
	l-11-11h22L406.2,293.1z M273.8,243.5c0,9.8-8,17.8-17.8,17.8c-9.8,0-17.8-8-17.8-17.8c0-9.8,8-17.8,17.8-17.8
	C265.8,225.7,273.8,233.7,273.8,243.5z M290.3,261.2c2.8-5.3,4.3-11.4,4.3-17.8s-1.6-12.4-4.3-17.8h200.7v35.5H290.3z M458.6,459.4
	L421,421.8l42.2-42.2l1.8,1.8v57.2C465,446.4,462.6,453.5,458.6,459.4z M367.4,475.4l38.8-38.8l36,36c-4.3,1.8-9.1,2.8-14,2.8v0
	H367.4z M253.4,475.5l38.8-38.8l7,7c2,2,4.7,3.1,7.4,3.1s5.3-1,7.4-3.1c4.1-4.1,4.1-10.7,0-14.8l-7-7l42.2-42.2l42.2,42.2
	l-53.6,53.6H253.4z M235.3,464L193,421.8l42.2-42.2l42.2,42.2L235.3,464z M139.4,475.5l38.9-38.9l38.9,38.9H139.4z M121.3,464
	l-42.2-42.2l42.2-42.2l42.2,42.2L121.3,464z M49.4,451.5l15-15l38.9,38.9H83.8C68.1,475.5,54.6,465.5,49.4,451.5z M47,419.3l2.5,2.5
	l-2.5,2.5V419.3z M47,339.9l57.8-57.8h32.9l25.8,25.8l-42.2,42.2l-8-8c-4.1-4.1-10.7-4.1-14.8,0s-4.1,10.7,0,14.8l8,8L64.3,407
	l-16.2-16.2c-0.3-0.4-0.7-0.7-1.1-0.9V339.9z M47,282.1h28.2L47,310.3V282.1z M20.9,225.7h21.8h121.9h52.8l2.3,4.8
	c-1.5,4.1-2.2,8.4-2.2,13c0,6.4,1.6,12.4,4.3,17.8H20.9V225.7z"/>
</svg>
