<?xml version="1.0" encoding="utf-8"?>
<!-- Generator: Adobe Illustrator 21.1.0, SVG Export Plug-In . SVG Version: 6.00 Build 0)  -->
<svg version="1.1" id="Layer_1" xmlns="http://www.w3.org/2000/svg" xmlns:xlink="http://www.w3.org/1999/xlink" x="0px" y="0px"
	 viewBox="0 0 512 512" style="enable-background:new 0 0 512 512;" xml:space="preserve">
<style type="text/css">
	.st0{fill:#739126;}
</style>
<g>
	<g>
		<path class="st0" d="M491.1,204.8h-5.2c26.7-58.6,38.6-120.8,8.1-138.4c-11.8-6.8-33.1-8.5-68,21.9c-20.7,18-41.9,43.8-61,73.8
			c-5.9-4.3-12.5-7.6-19.6-9.6c-0.1-7.8-1.4-15.6-3.9-23.3l33.8-69.6c1.6-3.2,1.4-7.1-0.5-10.1c-1.9-3.1-5.3-4.9-8.9-4.9h-29.3
			c-4,0-7.7,2.3-9.4,5.9l-17.7,36.4c-23.3-16-52.9-18.7-76.2-6.7c-1.7-2.3-3.6-4.4-5.6-6.4c-11.7-11.7-27.2-18.1-43.7-18.1
			c-9.3,0-18.3,2-26.5,5.9V26.1c0-5.8-4.7-10.4-10.4-10.4h-44.2c-5.8,0-10.4,4.7-10.4,10.4v71.5c0,32.4-10.4,44-22.5,57.4
			c-10.4,11.5-22,24.4-24.5,49.8H20.9C9.4,204.8,0,214.2,0,225.7v35.5c0,11.5,9.4,20.9,20.9,20.9h5.2v156.6
			c0,31.8,25.9,57.7,57.7,57.7h344.4c31.8,0,57.7-25.9,57.7-57.7V282.1h5.2c11.5,0,20.9-9.4,20.9-20.9v-35.5
			C512,214.2,502.6,204.8,491.1,204.8z M372.9,189.4c1.1-2,2.3-3.9,3.4-5.8h0c0,0,0,0,0,0c19.6-32.8,41.9-60.8,63.4-79.5
			c22.9-19.9,37.9-23,43.8-19.5c12.6,7.3,12.1,52.9-20.7,120.3h-98.4C367.1,199.7,369.9,194.5,372.9,189.4z M354.1,180L354.1,180
			c-4.7,8.2-9.1,16.5-13.2,24.8h-36.1l19.7-40.6c0.4,1.2,1,2.3,1.7,3.2c1.7,2.2,4.3,3.6,7,3.9C341,172.3,348.2,175.2,354.1,180z
			 M343.2,65.6h6l-71,146.3c-1.5-1-3-2-4.7-2.8L343.2,65.6z M333.7,322.6l42.2,42.2L333.7,407l-42.2-42.2L333.7,322.6z M322.7,282.1
			h21.9l-11,11L322.7,282.1z M464.9,339.9v50c-0.4,0.3-0.8,0.6-1.1,0.9L447.7,407l-42.2-42.2l8-8c4.1-4.1,4.1-10.7,0-14.8
			s-10.7-4.1-14.8,0l-8,8l-42.2-42.2l25.8-25.8h32.9L464.9,339.9z M436.7,282.1h28.2v28.2L436.7,282.1z M276.7,350l-11.2-11.2
			c-4.1-4.1-10.7-4.1-14.8,0c-4.1,4.1-4.1,10.7,0,14.8l11.2,11.2l-42.2,42.2l-42.2-42.2l35.2-35.2c4.1-4.1,4.1-10.7,0-14.8
			c-4.1-4.1-10.7-4.1-14.8,0l-35.2,35.2l-42.2-42.2l25.8-25.8h146.8l25.8,25.8L276.7,350z M91,307.9l-42.2,42.2l-1.8-1.8v-66.1h18.2
			v0L91,307.9z M105.8,322.7l42.2,42.2l-42.2,42.2l-42.2-42.2L105.8,322.7z M94.8,282.1h22l-11,11L94.8,282.1z M238.2,243.5
			c0-9.8,8-17.8,17.8-17.8c9.8,0,17.8,8,17.8,17.8c0,9.8-8,17.8-17.8,17.8S238.2,253.2,238.2,243.5z M157.6,86.3
			c7.4-6.3,16.7-9.7,26.5-9.7c10.9,0,21.2,4.3,28.9,12c3.1,3.1,5.7,6.7,7.7,10.7c1.4,2.8,3.9,4.8,7,5.5c3,0.7,6.2,0,8.7-1.9
			c17.9-13.6,44.2-12,64,3.1l-48,98.8h-47.7c-2.5-25.4-14.1-38.3-24.5-49.8c-12.1-13.4-22.5-25-22.5-57.4L157.6,86.3L157.6,86.3z
			 M113.4,36.5h23.3v7.6h-23.3C113.4,44.2,113.4,36.5,113.4,36.5z M85.4,169c13.1-14.5,27.9-30.9,27.9-71.4V65.1h23.3v32.5
			c0,40.5,14.8,56.9,27.9,71.4c9.3,10.3,16.9,18.7,19,35.8H66.4C68.6,187.7,76.2,179.2,85.4,169z M20.9,261.2v-35.5h200.7
			c-2.8,5.3-4.3,11.4-4.3,17.8s1.6,12.4,4.3,17.8L20.9,261.2L20.9,261.2z M47,438.7v-57.2l1.8-1.8L91,421.8l-37.6,37.6
			C49.4,453.5,47,446.4,47,438.7z M83.8,475.4c-5,0-9.7-1-14-2.8l36-36l38.8,38.8L83.8,475.4L83.8,475.4z M174.2,475.5l-53.6-53.6
			l42.2-42.2l42.2,42.2l-7,7c-4.1,4.1-4.1,10.7,0,14.8c2,2,4.7,3.1,7.4,3.1s5.3-1,7.4-3.1l7-7l38.8,38.8L174.2,475.5L174.2,475.5z
			 M234.5,421.8l42.2-42.2l42.2,42.2L276.7,464L234.5,421.8z M294.8,475.5l38.9-38.9l38.9,38.9H294.8z M348.5,421.8l42.2-42.2
			l42.2,42.2L390.7,464L348.5,421.8z M428.2,475.5h-19.4l38.9-38.9l15,15C457.4,465.5,443.9,475.5,428.2,475.5z M464.9,424.3
			l-2.5-2.5l2.5-2.5V424.3z M491.1,261.2H290.3c2.8-5.3,4.3-11.4,4.3-17.8c0-4.6-0.8-8.9-2.2-13l2.3-4.8h52.8h121.9h21.8
			L491.1,261.2L491.1,261.2z"/>
	</g>
</g>
<g>
	<g>
		<path class="st0" d="M477.2,124.4c-1.5-5.6-7.2-8.9-12.8-7.4l-19.5,5.2c-5.6,1.5-8.9,7.2-7.4,12.8c1.3,4.7,5.5,7.7,10.1,7.7
			c0.9,0,1.8-0.1,2.7-0.4l19.5-5.2C475.4,135.7,478.7,130,477.2,124.4z"/>
	</g>
</g>
<g>
	<g>
		<path class="st0" d="M445.9,178.7c-1.5-5.6-7.2-8.9-12.8-7.4l-19.5,5.2c-5.6,1.5-8.9,7.2-7.4,12.8c1.3,4.7,5.5,7.7,10.1,7.7
			c0.9,0,1.8-0.1,2.7-0.4l19.5-5.2C444.1,190,447.4,184.2,445.9,178.7z"/>
	</g>
</g>
<g>
	<g>
		<path class="st0" d="M234.8,292.8c-4.1-4.1-10.7-4.1-14.8,0l-0.1,0.1c-4.1,4.1-4.1,10.7,0,14.8c2,2,4.7,3.1,7.4,3.1s5.3-1,7.4-3.1
			l0.1-0.1C238.9,303.5,238.9,296.9,234.8,292.8z"/>
	</g>
</g>
<g>
	<g>
		<path class="st0" d="M191.7,449.8c-4.1-4.1-10.7-4.1-14.8,0l-0.1,0.1c-4.1,4.1-4.1,10.7,0,14.8c2,2,4.7,3.1,7.4,3.1s5.3-1,7.4-3.1
			l0.1-0.1C195.8,460.5,195.8,453.9,191.7,449.8z"/>
	</g>
</g>
<g>
	<g>
		<path class="st0" d="M432.9,322.6c-4.1-4.1-10.7-4.1-14.8,0l-0.1,0.1c-4.1,4.1-4.1,10.7,0,14.8c2,2,4.7,3.1,7.4,3.1s5.3-1,7.4-3.1
			l0.1-0.1C437,333.3,437,326.6,432.9,322.6z"/>
	</g>
</g>
</svg>
